<?xml version="1.0" encoding="UTF-8" standalone="no"?><!-- Generator: Gravit.io --><svg xmlns="http://www.w3.org/2000/svg" xmlns:xlink="http://www.w3.org/1999/xlink" style="isolation:isolate" viewBox="0 0 40.017 40.017" width="40.017pt" height="40.017pt"><defs><clipPath id="_clipPath_q17MTxIvoYSGBoVrzsR8gQWQP6oN9yxt"><rect width="40.017" height="40.017"/></clipPath></defs><g clip-path="url(#_clipPath_q17MTxIvoYSGBoVrzsR8gQWQP6oN9yxt)"><path d=" M 36.109 30.169 C 36.425 30.169 36.71 29.978 36.831 29.686 C 36.953 29.394 36.886 29.058 36.662 28.834 C 36.438 28.61 36.102 28.543 35.81 28.665 C 35.518 28.786 35.327 29.071 35.327 29.387 C 35.327 29.819 35.677 30.169 36.109 30.169 L 36.109 30.169 Z " fill="rgb(0,0,0)"/><path d=" M 36.109 27.043 C 36.541 27.043 36.891 26.693 36.891 26.261 L 36.891 20.008 C 36.876 19.587 36.531 19.254 36.109 19.254 C 35.688 19.254 35.343 19.587 35.328 20.008 L 35.328 26.261 C 35.328 26.692 35.678 27.042 36.109 27.043 L 36.109 27.043 Z " fill="rgb(0,0,0)"/><path d=" M 0.782 28.606 L 1.564 28.606 L 1.564 39.235 C 1.564 39.667 1.914 40.017 2.346 40.017 L 37.672 40.017 C 38.967 40.016 40.016 38.967 40.017 37.672 L 40.017 8.6 C 40.017 8.168 39.667 7.818 39.235 7.818 L 33.3 7.818 L 33.3 7.034 C 33.3 3.149 30.151 0 26.266 0 C 22.381 0 19.232 3.149 19.232 7.034 L 19.232 7.816 L 13.292 7.816 C 12.86 7.816 12.51 8.166 12.51 8.598 L 12.51 16.884 C 11.746 17.46 11.218 18.295 11.026 19.232 C 11 19.231 10.973 19.231 10.947 19.232 L 10.869 19.232 C 10.549 17.661 9.301 16.445 7.722 16.165 C 6.143 15.885 4.553 16.598 3.712 17.963 C 2.871 19.328 2.95 21.069 3.91 22.353 L 0.782 22.353 C 0.575 22.353 0.376 22.435 0.229 22.582 C 0.082 22.729 0 22.928 0 23.135 L 0 27.824 C 0 28.031 0.082 28.23 0.229 28.377 C 0.376 28.524 0.575 28.606 0.782 28.606 Z  M 3.127 28.606 L 7.034 28.606 L 7.034 38.454 L 3.126 38.454 L 3.127 28.606 Z  M 8.598 28.606 L 13.287 28.606 L 13.287 38.454 L 8.6 38.454 L 8.598 28.606 Z  M 18.759 38.454 L 14.85 38.454 L 14.85 28.606 L 18.758 28.606 L 18.759 38.454 Z  M 14.85 27.043 L 14.85 23.916 L 20.321 23.916 L 20.321 27.042 L 14.85 27.043 Z  M 14.85 22.354 L 14.77 22.354 C 14.656 21.788 14.417 21.255 14.07 20.793 L 14.07 17.8 C 14.95 17.488 15.932 17.727 16.569 18.411 C 17.206 19.094 17.377 20.09 17.004 20.946 C 16.632 21.802 15.786 22.356 14.852 22.355 L 14.85 22.354 Z  M 10.9 20.79 L 11.577 20.875 C 12.312 21.082 12.901 21.632 13.157 22.352 L 8.734 22.352 C 9.06 21.431 9.923 20.809 10.9 20.79 Z  M 13.29 23.916 L 13.29 27.042 L 8.6 27.042 L 8.6 23.916 L 13.29 23.916 Z  M 37.672 38.454 L 20.321 38.454 L 20.321 35.327 L 38.454 35.327 L 38.454 37.672 C 38.454 37.879 38.372 38.078 38.225 38.225 C 38.078 38.372 37.879 38.454 37.672 38.454 Z  M 20.79 7.034 C 20.79 4.012 23.239 1.563 26.261 1.563 C 29.283 1.563 31.732 4.012 31.732 7.034 L 31.732 7.816 L 20.79 7.816 L 20.79 7.034 Z  M 19.227 9.379 L 19.227 12.979 L 18.445 12.979 C 18.159 12.969 17.89 13.115 17.745 13.361 C 17.599 13.607 17.599 13.914 17.745 14.16 C 17.89 14.406 18.159 14.552 18.445 14.542 L 21.571 14.542 C 21.857 14.552 22.126 14.406 22.271 14.16 C 22.417 13.914 22.417 13.607 22.271 13.361 C 22.126 13.115 21.857 12.969 21.571 12.979 L 20.79 12.979 L 20.79 9.379 L 31.732 9.379 L 31.732 12.979 L 30.95 12.979 C 30.664 12.969 30.395 13.115 30.25 13.361 C 30.104 13.607 30.104 13.914 30.25 14.16 C 30.395 14.406 30.664 14.552 30.95 14.542 L 34.076 14.542 C 34.362 14.552 34.631 14.406 34.776 14.16 C 34.922 13.914 34.922 13.607 34.776 13.361 C 34.631 13.115 34.362 12.969 34.076 12.979 L 33.3 12.979 L 33.3 9.379 L 38.458 9.379 L 38.458 33.764 L 20.321 33.764 L 20.321 28.606 L 21.1 28.606 C 21.307 28.606 21.506 28.524 21.653 28.377 C 21.8 28.23 21.882 28.031 21.882 27.824 L 21.882 23.135 C 21.882 22.928 21.8 22.729 21.653 22.582 C 21.506 22.435 21.307 22.353 21.1 22.353 L 17.974 22.353 C 18.949 21.055 19.02 19.29 18.152 17.918 C 17.284 16.546 15.658 15.855 14.068 16.18 L 14.068 9.38 L 19.227 9.379 Z  M 4.689 20.008 C 4.692 18.8 5.612 17.792 6.815 17.679 C 8.018 17.566 9.109 18.386 9.337 19.572 C 8.196 20.092 7.37 21.124 7.114 22.351 L 7.033 22.351 C 5.74 22.349 4.691 21.301 4.689 20.008 Z  M 1.563 23.916 L 7.034 23.916 L 7.034 27.042 L 1.563 27.042 L 1.563 23.916 Z " fill="rgb(0,0,0)"/></g></svg>