<?xml version="1.0" encoding="UTF-8" standalone="no"?><!-- Generator: Gravit.io --><svg xmlns="http://www.w3.org/2000/svg" xmlns:xlink="http://www.w3.org/1999/xlink" style="isolation:isolate" viewBox="0 0 53.917 40.017" width="53.917pt" height="40.017pt"><defs><clipPath id="_clipPath_3ZRb2y7Pqw6KqFUL1AIwm6eNZQeJ28ct"><rect width="53.917" height="40.017"/></clipPath></defs><g clip-path="url(#_clipPath_3ZRb2y7Pqw6KqFUL1AIwm6eNZQeJ28ct)"><path d=" M 45.493 31.592 C 44.641 31.592 43.873 32.105 43.547 32.892 C 43.221 33.679 43.402 34.585 44.004 35.187 C 44.606 35.789 45.512 35.97 46.299 35.644 C 47.086 35.318 47.599 34.55 47.599 33.698 C 47.599 33.139 47.377 32.604 46.982 32.209 C 46.587 31.814 46.052 31.592 45.493 31.592 L 45.493 31.592 Z " fill="rgb(0,0,0)"/><path d=" M 44.44 23.168 C 44.014 23.168 43.63 23.425 43.467 23.818 C 43.304 24.212 43.394 24.664 43.695 24.966 C 43.997 25.267 44.449 25.357 44.843 25.194 C 45.236 25.031 45.493 24.647 45.493 24.221 C 45.492 23.64 45.021 23.169 44.44 23.168 Z " fill="rgb(0,0,0)"/><path d=" M 13.269 31.592 C 12.417 31.592 11.649 32.105 11.323 32.892 C 10.997 33.679 11.178 34.585 11.78 35.187 C 12.382 35.789 13.288 35.97 14.075 35.644 C 14.862 35.318 15.375 34.55 15.375 33.698 C 15.375 33.139 15.153 32.604 14.758 32.209 C 14.363 31.814 13.828 31.592 13.269 31.592 L 13.269 31.592 Z " fill="rgb(0,0,0)"/><path d=" M 49.491 19.023 L 47.676 11.76 C 48.609 10.868 48.905 9.499 48.425 8.301 C 47.944 7.103 46.784 6.319 45.493 6.319 L 37.068 6.319 L 37.068 3.159 C 37.066 1.415 35.653 0.002 33.909 0 L 3.159 0 C 1.415 0.002 0.002 1.415 0 3.159 L 0 30.539 C 0.001 32.284 1.414 33.698 3.159 33.7 L 6.95 33.7 C 6.95 37.19 9.779 40.019 13.269 40.019 C 16.758 40.019 19.587 37.19 19.587 33.7 L 39.174 33.7 C 39.174 37.19 42.003 40.019 45.493 40.019 C 48.982 40.019 51.811 37.19 51.811 33.7 C 51.811 33.64 51.811 33.58 51.811 33.52 C 53.074 33.074 53.92 31.881 53.922 30.541 L 53.922 24.221 C 53.918 21.637 52.042 19.436 49.491 19.023 L 49.491 19.023 Z  M 45.723 12.637 L 47.303 18.955 L 38.557 18.955 L 40.972 16.54 C 41.373 16.127 41.368 15.469 40.961 15.062 C 40.554 14.655 39.896 14.65 39.483 15.051 L 37.068 17.465 L 37.068 12.637 L 45.723 12.637 Z  M 46.545 9.478 C 46.544 10.059 46.073 10.53 45.492 10.531 L 37.068 10.531 L 37.068 8.425 L 45.493 8.425 C 46.074 8.426 46.545 8.897 46.546 9.478 L 46.545 9.478 Z  M 13.269 37.911 C 11.565 37.911 10.029 36.885 9.378 35.311 C 8.726 33.737 9.086 31.925 10.291 30.72 C 11.496 29.516 13.308 29.156 14.882 29.808 C 16.455 30.46 17.481 31.996 17.481 33.7 C 17.478 36.025 15.594 37.908 13.269 37.911 L 13.269 37.911 Z  M 19.226 31.593 C 18.334 29.068 15.947 27.38 13.269 27.38 C 10.591 27.38 8.204 29.068 7.312 31.593 L 3.159 31.593 C 2.578 31.592 2.107 31.121 2.106 30.54 L 2.106 3.159 C 2.107 2.578 2.578 2.107 3.159 2.106 L 33.909 2.106 C 34.49 2.107 34.961 2.578 34.962 3.159 L 34.962 31.592 L 19.226 31.593 Z  M 45.493 37.911 C 43.789 37.911 42.253 36.885 41.602 35.311 C 40.95 33.737 41.31 31.925 42.515 30.72 C 43.72 29.516 45.532 29.156 47.106 29.808 C 48.679 30.46 49.705 31.996 49.705 33.7 C 49.702 36.025 47.818 37.908 45.493 37.911 L 45.493 37.911 Z  M 51.375 31.391 C 50.411 28.935 48.024 27.337 45.386 27.381 C 42.749 27.426 40.416 29.104 39.536 31.591 L 37.068 31.591 L 37.068 21.061 L 48.652 21.061 C 49.99 21.063 51.183 21.906 51.63 23.167 L 48.652 23.167 C 48.07 23.167 47.599 23.638 47.599 24.22 C 47.599 24.802 48.07 25.273 48.652 25.273 L 51.811 25.273 L 51.811 30.538 C 51.811 30.876 51.649 31.193 51.375 31.391 L 51.375 31.391 Z " fill="rgb(0,0,0)"/><path d=" M 18.534 6.318 C 14.701 6.318 11.244 8.627 9.777 12.169 C 8.31 15.711 9.121 19.787 11.832 22.498 C 14.543 25.209 18.619 26.02 22.161 24.553 C 25.703 23.086 28.012 19.629 28.012 15.796 C 28.006 10.564 23.766 6.324 18.534 6.318 L 18.534 6.318 Z  M 18.534 23.167 C 14.463 23.167 11.162 19.866 11.162 15.795 C 11.162 11.724 14.463 8.423 18.534 8.423 C 22.605 8.423 25.906 11.724 25.906 15.795 C 25.902 19.865 22.604 23.163 18.534 23.167 L 18.534 23.167 Z " fill="rgb(0,0,0)"/><path d=" M 22.746 14.743 L 19.587 14.743 L 19.587 11.584 C 19.587 11.208 19.386 10.86 19.061 10.672 C 18.735 10.484 18.333 10.484 18.007 10.672 C 17.682 10.86 17.481 11.208 17.481 11.584 L 17.481 15.796 C 17.481 16.378 17.952 16.849 18.534 16.849 L 22.746 16.849 C 23.328 16.849 23.799 16.378 23.799 15.796 C 23.799 15.214 23.328 14.743 22.746 14.743 L 22.746 14.743 Z " fill="rgb(0,0,0)"/></g></svg>