<?xml version="1.0" encoding="UTF-8" standalone="no"?><!-- Generator: Gravit.io --><svg xmlns="http://www.w3.org/2000/svg" xmlns:xlink="http://www.w3.org/1999/xlink" style="isolation:isolate" viewBox="0 0 42.685 40.017" width="42.685pt" height="40.017pt"><defs><clipPath id="_clipPath_NknUjRY4bzQjTl5JonDB5ibs0OKvrOs0"><rect width="42.685" height="40.017"/></clipPath></defs><g clip-path="url(#_clipPath_NknUjRY4bzQjTl5JonDB5ibs0OKvrOs0)"><path d=" M 21.343 28.345 C 20.882 28.345 20.509 28.718 20.509 29.179 C 20.509 29.64 20.882 30.013 21.343 30.013 C 21.804 30.013 22.177 29.64 22.177 29.179 C 22.177 28.958 22.089 28.746 21.933 28.589 C 21.776 28.433 21.564 28.345 21.343 28.345 Z " fill="rgb(75,48,73)"/><path d=" M 40.184 15.006 L 37.184 15.006 L 37.184 2.5 C 37.184 1.119 36.065 0 34.684 0 L 2.5 0 C 1.119 0 0 1.119 0 2.5 L 0 22.509 C 0 23.89 1.119 25.009 2.5 25.009 L 5.5 25.009 L 5.5 37.516 C 5.5 38.897 6.619 40.016 8 40.016 L 40.18 40.016 C 41.561 40.016 42.68 38.897 42.68 37.516 L 42.68 17.507 C 42.681 16.127 41.564 15.008 40.184 15.006 L 40.184 15.006 Z  M 1.667 6.669 L 35.515 6.669 L 35.515 10 L 1.667 10 L 1.667 6.669 Z  M 2.501 1.669 L 34.681 1.669 C 34.902 1.669 35.114 1.757 35.271 1.913 C 35.427 2.07 35.515 2.282 35.515 2.503 L 35.515 5 L 1.667 5 L 1.667 2.5 C 1.668 2.04 2.04 1.668 2.5 1.667 L 2.501 1.669 Z  M 2.501 23.345 C 2.04 23.345 1.667 22.972 1.667 22.511 L 1.667 11.672 L 35.515 11.672 L 35.515 15.007 L 8 15.007 C 6.619 15.007 5.5 16.126 5.5 17.507 L 5.5 23.343 L 2.501 23.345 Z  M 41.017 37.516 C 41.017 37.737 40.929 37.949 40.773 38.106 C 40.616 38.262 40.404 38.35 40.183 38.35 L 8 38.35 C 7.779 38.35 7.567 38.262 7.41 38.106 C 7.254 37.949 7.166 37.737 7.166 37.516 L 7.166 17.507 C 7.167 17.047 7.54 16.674 8 16.674 L 40.18 16.674 C 40.401 16.674 40.613 16.762 40.77 16.918 C 40.926 17.075 41.014 17.287 41.014 17.508 L 41.017 37.516 Z " fill="rgb(0,0,0)"/><ellipse vector-effect="non-scaling-stroke" cx="21.338999948581474" cy="29.179000000000027" rx="0.8299999485814844" ry="0.8339999999999996" fill="rgb(0,0,0)"/><path d=" M 33.014 20.008 C 32.112 20.009 31.235 20.302 30.514 20.843 C 28.795 19.552 26.376 19.781 24.929 21.371 C 23.482 22.961 23.482 25.391 24.929 26.981 C 26.376 28.571 28.795 28.8 30.514 27.509 C 31.965 28.599 33.954 28.625 35.433 27.574 C 36.912 26.523 37.541 24.636 36.988 22.908 C 36.436 21.18 34.828 20.007 33.014 20.009 L 33.014 20.008 Z  M 25.514 24.176 C 25.513 23.136 26.157 22.204 27.13 21.836 C 28.103 21.468 29.202 21.741 29.89 22.522 L 29.89 22.522 C 30.624 23.357 30.719 24.576 30.123 25.514 C 29.527 26.452 28.383 26.884 27.316 26.574 C 26.248 26.264 25.514 25.287 25.513 24.175 L 25.514 24.176 Z  M 33.014 26.676 C 32.519 26.676 32.035 26.528 31.624 26.253 C 32.366 24.967 32.366 23.382 31.624 22.096 C 32.514 21.501 33.685 21.54 34.534 22.192 C 35.384 22.843 35.724 23.964 35.38 24.978 C 35.036 25.992 34.085 26.674 33.014 26.675 L 33.014 26.676 Z " fill="rgb(0,0,0)"/><path d=" M 14.672 33.347 L 11.337 33.347 C 11.032 33.336 10.746 33.493 10.591 33.755 C 10.435 34.017 10.435 34.344 10.591 34.606 C 10.746 34.868 11.032 35.025 11.337 35.014 L 14.672 35.014 C 14.977 35.025 15.263 34.868 15.418 34.606 C 15.574 34.344 15.574 34.017 15.418 33.755 C 15.263 33.493 14.977 33.336 14.672 33.347 Z " fill="rgb(0,0,0)"/><path d=" M 21.342 33.347 L 18.007 33.347 C 17.702 33.336 17.416 33.493 17.261 33.755 C 17.105 34.017 17.105 34.344 17.261 34.606 C 17.416 34.868 17.702 35.025 18.007 35.014 L 21.342 35.014 C 21.647 35.025 21.933 34.868 22.088 34.606 C 22.244 34.344 22.244 34.017 22.088 33.755 C 21.933 33.493 21.647 33.336 21.342 33.347 Z " fill="rgb(0,0,0)"/><path d=" M 28.011 33.347 L 24.676 33.347 C 24.371 33.336 24.085 33.493 23.93 33.755 C 23.774 34.017 23.774 34.344 23.93 34.606 C 24.085 34.868 24.371 35.025 24.676 35.014 L 28.011 35.014 C 28.316 35.025 28.602 34.868 28.757 34.606 C 28.913 34.344 28.913 34.017 28.757 33.755 C 28.602 33.493 28.316 33.336 28.011 33.347 Z " fill="rgb(0,0,0)"/><path d=" M 34.681 33.347 L 31.346 33.347 C 30.897 33.363 30.541 33.731 30.541 34.18 C 30.541 34.63 30.897 34.998 31.346 35.014 L 34.681 35.014 C 34.986 35.025 35.272 34.868 35.427 34.606 C 35.583 34.344 35.583 34.017 35.427 33.755 C 35.272 33.493 34.986 33.336 34.681 33.347 Z " fill="rgb(0,0,0)"/><path d=" M 11.338 30.012 L 18.004 30.012 C 18.309 30.023 18.595 29.866 18.75 29.604 C 18.906 29.342 18.906 29.015 18.75 28.753 C 18.595 28.491 18.309 28.334 18.004 28.345 L 11.335 28.345 C 11.03 28.334 10.744 28.491 10.589 28.753 C 10.433 29.015 10.433 29.342 10.589 29.604 C 10.744 29.866 11.03 30.023 11.335 30.012 L 11.338 30.012 Z " fill="rgb(0,0,0)"/></g></svg>